<svg version="1.1" id="Layer_1" xmlns="http://www.w3.org/2000/svg" xmlns:xlink="http://www.w3.org/1999/xlink" x="0px" y="0px"
	 width="100%" viewBox="0 0 1024 288" enable-background="new 0 0 1024 288" xml:space="preserve">
<path fill="#000000" opacity="1.000000" stroke="none" 
	d="
M163.671295,152.332794 
	C158.320999,146.205215 152.620987,141.194992 144.770309,139.340698 
	C131.869766,136.293655 121.381439,140.701935 113.077072,150.363251 
	C107.224274,157.172409 102.182762,164.672348 96.613457,171.733276 
	C88.833176,181.597366 79.436806,188.884033 66.350845,190.137421 
	C59.548397,190.788986 58.739624,190.197372 58.735294,183.505875 
	C58.723438,165.174332 58.854385,146.841293 58.638496,128.512268 
	C58.584507,123.928589 59.695469,121.830414 64.683434,121.928398 
	C73.439407,122.100403 80.214722,117.634094 86.095978,111.589386 
	C90.881233,106.671150 94.708534,100.997604 98.736015,95.481270 
	C102.473015,90.362785 106.357521,85.369720 111.041206,81.051369 
	C126.541504,66.760094 149.134964,66.976616 164.386978,81.502914 
	C172.057419,88.808388 177.540558,97.830849 183.975418,106.104729 
	C191.703400,116.041298 200.783020,122.997925 214.356888,122.090515 
	C224.145493,121.436150 231.351288,116.489075 237.272064,109.420830 
	C242.827805,102.788376 247.693741,95.583397 253.070374,88.794403 
	C261.110229,78.642639 270.826965,71.331070 284.453003,70.632980 
	C288.889069,70.405701 290.583862,71.663971 290.518951,76.422539 
	C290.262299,95.250633 290.306458,114.084816 290.460754,132.914932 
	C290.493683,136.931076 289.368683,138.371567 285.146118,138.481400 
	C272.797577,138.802628 264.811249,146.582230 257.768524,155.594574 
	C251.115799,164.107788 245.627197,173.563019 237.249161,180.670792 
	C221.355042,194.155045 199.726700,193.346634 184.742432,178.773712 
	C176.674637,170.927383 171.115234,161.111084 163.671295,152.332794 
M201.121246,128.806885 
	C190.341919,125.578094 182.966614,118.022034 176.381683,109.424438 
	C171.521255,103.078415 167.286392,96.256187 161.810684,90.377846 
	C147.049500,74.531212 128.236496,74.421631 113.436745,90.129684 
	C107.357559,96.581963 102.777100,104.200600 97.214272,111.051826 
	C91.833321,117.679070 85.997849,123.722443 78.013077,127.440903 
	C74.494141,129.079651 69.080627,127.783371 67.570129,132.000229 
	C66.291733,135.569153 67.131828,139.898209 67.043228,143.891037 
	C67.024750,144.723877 67.030190,145.557922 67.049843,146.390808 
	C67.181839,151.984177 67.911461,152.421677 73.309181,150.365021 
	C78.911407,148.230438 83.344475,144.518478 87.331093,140.175522 
	C92.646011,134.385529 96.767174,127.682846 101.601265,121.528130 
	C107.286224,114.290108 113.303764,107.379059 122.052452,103.612907 
	C139.412354,96.139793 157.301880,101.477928 170.677597,118.308304 
	C176.377182,125.479973 181.489548,133.136383 187.422379,140.100922 
	C201.219788,156.297607 221.988571,156.339508 236.180496,140.598083 
	C241.890167,134.265030 246.563858,127.150970 251.720566,120.402184 
	C258.887115,111.023018 267.286835,103.451019 279.329071,101.128052 
	C282.040771,100.604973 282.766510,99.070618 282.695343,96.541756 
	C282.573517,92.212036 282.528534,87.870674 282.706604,83.544708 
	C282.881042,79.306984 280.986450,78.747139 277.444672,79.917824 
	C271.901825,81.749916 267.449341,85.093155 263.438049,89.215454 
	C257.125275,95.702904 252.329926,103.356529 246.905853,110.523544 
	C235.523102,125.564026 221.332336,133.617142 201.121246,128.806885 
M213.376511,181.925735 
	C221.135605,181.918701 227.493073,178.723251 233.094177,173.539612 
	C240.261703,166.906296 245.290024,158.590912 251.224686,150.985947 
	C256.791992,143.851776 262.472778,135.829529 271.450226,133.840958 
	C282.220795,131.455215 284.222260,125.499252 282.687897,116.257500 
	C282.553314,115.446648 282.604218,114.588387 282.679108,113.762131 
	C283.090393,109.224075 280.920166,108.741844 277.186188,109.963036 
	C268.819244,112.699425 263.237823,118.859818 258.012848,125.393295 
	C252.399445,132.412430 247.531494,139.997009 241.515274,146.729141 
	C226.348434,163.700760 201.910812,164.983948 185.396286,149.490005 
	C181.375534,145.717743 177.896118,141.463287 174.632858,137.021576 
	C170.492310,131.385773 166.631851,125.531731 161.848846,120.389206 
	C146.897812,104.314377 128.136810,104.298439 113.173164,120.351448 
	C107.131310,126.833168 102.551270,134.446960 96.983002,141.293213 
	C89.931282,149.963379 82.110420,157.547699 70.416183,159.461472 
	C69.064537,159.682663 67.547142,160.193268 67.423843,161.697296 
	C66.888031,168.232941 66.555763,174.783707 67.736496,181.927292 
	C70.295547,181.122131 72.199097,180.633698 74.020050,179.931183 
	C81.992439,176.855469 87.326340,170.661026 92.291214,164.124573 
	C97.023788,157.893951 101.537491,151.512543 106.511726,145.448563 
	C122.700096,125.713722 150.937836,125.668594 167.295578,144.263855 
	C173.262421,151.046875 178.083817,158.652954 183.714996,165.660614 
	C191.130463,174.888718 199.430496,182.599304 213.376511,181.925735 
z"/>
<path fill="#000000" opacity="1.000000" stroke="none" 
	d="
M479.752625,189.370667 
	C484.900024,190.517242 489.601410,190.770645 494.484650,189.854706 
	C504.843109,187.911835 512.176331,181.071045 513.450378,170.734131 
	C514.071777,165.692474 513.557861,160.510880 513.557861,155.552368 
	C512.135315,154.860901 511.607910,155.743820 511.211884,156.347733 
	C499.043365,174.901291 466.399841,173.877335 451.786224,153.259109 
	C439.557526,136.005676 441.074066,108.967827 455.386230,93.499481 
	C470.217712,77.469818 500.058960,77.280670 511.207397,94.840881 
	C511.534882,95.356689 512.149963,95.689903 512.842773,96.292496 
	C514.695557,94.114227 514.042969,91.688278 514.072083,89.522751 
	C514.123718,85.676575 515.435303,83.768753 519.673889,83.836121 
	C533.228394,84.051529 531.253174,82.836517 531.296509,95.180954 
	C531.375916,117.833000 531.320251,140.485535 531.308655,163.137878 
	C531.294128,191.473022 512.030762,208.484787 483.763031,205.602295 
	C468.620453,204.058167 456.557953,197.583939 447.303131,185.538589 
	C445.083191,182.649231 445.307190,181.055298 448.619293,179.499649 
	C452.074921,177.876587 455.232361,174.730515 458.745361,174.354538 
	C462.670624,173.934433 463.467896,179.223587 466.116882,181.592285 
	C470.042267,185.102310 474.201599,187.983215 479.752625,189.370667 
M507.314545,105.196228 
	C491.663696,90.398041 466.726990,97.021500 461.815369,117.311630 
	C460.626923,122.221306 460.841248,127.239319 461.391876,132.197647 
	C462.600891,143.084564 470.688049,151.563690 481.489471,153.516663 
	C493.977539,155.774582 505.771790,151.357941 510.310944,141.627670 
	C516.003052,129.425919 515.862305,117.190697 507.314545,105.196228 
z"/>
<path fill="#000000" opacity="1.000000" stroke="none" 
	d="
M552.682007,179.528046 
	C556.205383,177.603043 559.305542,174.718491 562.658142,174.387054 
	C566.622375,173.995163 567.573059,179.082367 570.058105,181.558243 
	C579.300049,190.766251 594.589600,193.334656 606.147095,187.354324 
	C612.774963,183.924835 616.283325,178.210968 617.395813,171.163315 
	C618.216187,165.966095 617.971680,160.628632 617.399658,155.459869 
	C616.063904,155.034607 615.537231,155.851105 615.125977,156.461441 
	C602.703308,174.898529 571.020203,173.347412 556.570190,154.321487 
	C543.375854,136.948853 544.800598,107.958786 560.228638,92.624290 
	C575.148560,77.794762 602.763000,77.568291 614.523621,93.795235 
	C615.151794,94.662064 615.683777,95.890907 617.269836,95.819221 
	C618.575806,94.005417 618.379456,91.809784 618.576172,89.715324 
	C618.684875,88.557289 618.267761,87.059845 618.847961,86.283623 
	C622.339111,81.612686 627.372375,84.585136 631.699890,84.044426 
	C634.462769,83.699203 635.316345,85.719757 635.312866,88.258217 
	C635.276001,115.080879 635.792542,141.917267 635.088318,168.721802 
	C634.563293,188.703857 620.078918,203.096146 600.050537,205.329010 
	C580.192444,207.542892 563.623413,201.603745 551.215454,185.392792 
	C549.210205,182.772888 549.109863,181.017410 552.682007,179.528046 
M612.846191,144.276749 
	C619.494873,133.877411 619.248962,122.857658 615.409973,111.703781 
	C613.863708,107.211411 610.714600,103.659187 606.475403,101.304382 
	C596.468201,95.745560 586.252930,95.776459 576.533691,101.520287 
	C566.569458,107.408936 564.718262,117.360100 565.074829,127.990875 
	C565.461121,139.506485 570.121033,148.375748 581.435974,152.352356 
	C590.890503,155.675171 604.847961,154.789978 612.846191,144.276749 
z"/>
<path fill="#000000" opacity="1.000000" stroke="none" 
	d="
M134.327133,25.964325 
	C160.284592,23.022148 184.543594,27.194733 207.364059,39.058311 
	C222.816711,47.091633 235.799606,58.161957 246.642578,71.764038 
	C250.651459,76.793037 250.596207,77.136040 245.322906,81.703346 
	C243.565964,81.560936 242.940521,80.043144 242.062790,78.893608 
	C221.880310,52.461483 195.087952,36.850491 162.234268,33.635540 
	C97.978966,27.347727 45.288239,73.025711 37.196964,131.286697 
	C28.446918,194.291153 72.380966,248.110962 128.616211,259.162903 
	C189.510422,271.130493 250.986893,230.362793 262.596008,169.428421 
	C263.697083,163.649170 266.749146,159.636765 271.552856,155.714981 
	C273.069122,160.951645 271.581085,165.308945 270.709137,169.512787 
	C259.735748,222.418152 220.980698,260.011780 167.440002,267.914307 
	C101.250488,277.683746 40.345646,231.670959 29.584759,166.807220 
	C18.521355,100.119995 64.810753,36.234211 132.418945,26.357521 
	C132.912399,26.285433 133.396011,26.146070 134.327133,25.964325 
z"/>
<path fill="#000000" opacity="1.000000" stroke="none" 
	d="
M424.703003,169.079834 
	C423.737549,169.161224 423.238434,169.190598 422.739044,169.196777 
	C411.430817,169.336823 411.436279,169.335571 409.869904,158.383530 
	C409.808716,157.955627 409.446503,157.570786 409.025177,156.802170 
	C406.797638,159.297012 404.972290,161.868729 402.647217,163.855774 
	C391.573853,173.319458 369.529236,174.293579 357.538269,165.912582 
	C349.785919,160.494156 346.312561,152.816833 346.975189,143.519455 
	C347.668427,133.791977 352.993103,127.232910 361.972412,123.515671 
	C370.435333,120.012207 379.434601,119.573822 388.365692,118.698013 
	C394.156525,118.130142 399.935150,117.384026 405.738129,117.013893 
	C409.416962,116.779236 410.081329,114.913437 409.741119,111.732399 
	C408.920105,104.055771 401.756287,97.990463 392.354370,97.379120 
	C380.553528,96.611771 370.536926,99.633118 364.589081,110.923149 
	C363.842590,112.340057 362.903931,113.632515 361.101288,112.863609 
	C357.430176,111.297745 353.695953,109.800400 350.242981,107.827980 
	C347.524353,106.275017 349.705414,104.310036 350.630920,102.761734 
	C359.838867,87.357964 378.463715,79.206528 396.585999,82.237923 
	C410.402893,84.549126 421.042358,90.692673 425.556549,104.776947 
	C426.673370,108.261436 427.336426,111.857216 427.330322,115.561531 
	C427.304016,131.550018 427.349030,147.538712 427.282898,163.526978 
	C427.274628,165.529266 428.085846,168.048859 424.703003,169.079834 
M409.695496,137.039429 
	C409.632874,134.572571 411.010651,130.951920 406.645020,131.196106 
	C395.549561,131.816757 384.371216,132.099777 373.511414,134.697006 
	C367.488342,136.137497 364.376434,140.224594 364.424652,145.125870 
	C364.473785,150.119812 367.445831,154.297104 373.307800,155.839752 
	C386.917389,159.421234 405.476440,155.465012 409.695496,137.039429 
z"/>
<path fill="#000000" opacity="1.000000" stroke="none" 
	d="
M708.571716,149.234955 
	C707.064941,136.924301 712.377136,127.943459 723.400452,123.480591 
	C731.720215,120.112312 740.539246,119.578636 749.307983,118.718224 
	C755.264465,118.133774 761.211670,117.383171 767.182190,117.041023 
	C770.958130,116.824646 771.421814,115.064049 770.910583,111.825745 
	C769.750244,104.475838 765.566650,100.150261 757.083923,98.045845 
	C744.291504,94.872276 732.984009,99.268234 726.139038,110.351387 
	C724.558228,112.910957 722.981750,113.423759 720.457458,112.062469 
	C719.143616,111.353920 717.712219,110.866249 716.347168,110.249275 
	C708.958801,106.909882 708.839844,106.401306 713.830994,99.697639 
	C726.583435,82.569717 751.815857,76.525696 770.899780,86.163162 
	C782.002625,91.770149 787.900879,101.109535 788.200012,113.377380 
	C788.609985,130.190414 788.199829,147.022003 788.378052,163.843124 
	C788.422668,168.053696 786.855347,169.269989 782.820190,169.267822 
	C772.243408,169.262161 772.248596,169.415115 771.618896,158.983078 
	C771.581299,158.359894 771.354309,157.748138 771.230774,157.199188 
	C769.187317,156.551880 768.714417,158.148224 768.059875,159.131363 
	C757.991516,174.254166 730.270813,174.534012 718.148560,165.436859 
	C712.855896,161.464981 709.458984,156.321747 708.571716,149.234955 
M726.536072,141.434280 
	C725.400818,151.385803 729.306763,156.179749 739.281982,156.791504 
	C742.589478,156.994324 745.947327,156.967148 749.244080,156.649811 
	C761.052490,155.513062 770.171143,146.689957 771.546631,135.249115 
	C771.853760,132.694138 771.757690,130.501709 768.103333,130.863571 
	C758.513245,131.813232 748.881042,132.403992 739.326050,133.614197 
	C734.395813,134.238647 729.421021,135.577759 726.536072,141.434280 
z"/>
<path fill="#000000" opacity="1.000000" stroke="none" 
	d="
M883.544006,170.975555 
	C863.118591,166.828827 850.559814,155.078140 847.338074,135.569916 
	C844.284973,117.083099 848.843689,100.731133 864.958496,89.342552 
	C879.322021,79.191650 899.755798,79.165924 914.944580,88.847580 
	C928.794617,97.675903 936.657227,116.190285 933.787781,133.218796 
	C929.395508,159.284683 911.300293,173.032822 883.544006,170.975555 
M864.403748,133.818848 
	C864.692383,134.945862 864.945251,136.083481 865.275330,137.198212 
	C868.629883,148.524826 877.568665,155.444946 889.116760,155.671341 
	C901.951660,155.922974 911.301331,149.588531 915.158020,138.043839 
	C916.878967,132.892242 917.022278,127.575798 916.628235,122.251877 
	C915.599731,108.357361 905.825745,98.354767 892.495728,97.398552 
	C878.741699,96.411911 867.846375,104.447227 864.748352,118.033073 
	C863.629456,122.939995 863.831177,127.951263 864.403748,133.818848 
z"/>
<path fill="#000000" opacity="1.000000" stroke="none" 
	d="
M817.633789,55.038376 
	C821.858093,55.094955 822.198608,57.629406 822.183533,60.540737 
	C822.144104,68.168694 822.170166,75.796997 822.170166,84.125526 
	C826.681946,84.125526 830.627930,84.142853 834.573608,84.119972 
	C837.656006,84.102112 839.254272,85.492470 839.050781,88.678726 
	C839.040161,88.844620 839.046204,89.012039 839.052185,89.178474 
	C839.421387,99.386642 839.421570,99.386642 829.352539,99.381950 
	C822.209900,99.378624 822.207947,99.378616 822.204834,106.430748 
	C822.198669,120.262253 822.298157,134.095016 822.128357,147.924500 
	C822.076355,152.155914 823.483398,154.219131 827.878052,153.878006 
	C829.699890,153.736618 831.558289,153.709061 833.371704,153.899628 
	C836.061218,154.182327 839.717773,152.493942 841.182129,155.505356 
	C842.938110,159.116333 842.246155,163.344498 841.470215,167.279846 
	C841.103027,169.142014 839.338745,169.174362 837.827576,169.178375 
	C831.495605,169.195175 825.147156,169.448837 818.835388,169.084503 
	C810.195007,168.585724 804.732117,162.732727 804.715088,154.017181 
	C804.653992,122.688217 804.781311,91.358864 804.706238,60.029980 
	C804.697327,56.318512 806.101868,54.855923 809.677795,55.007088 
	C812.172852,55.112568 814.676208,55.022255 817.633789,55.038376 
z"/>
<path fill="#000000" opacity="1.000000" stroke="none" 
	d="
M967.367310,151.998505 
	C967.360535,156.326828 967.373413,160.155670 967.334106,163.983978 
	C967.322266,165.140976 967.624756,166.765274 967.000732,167.376114 
	C963.132019,171.163345 958.254883,168.679565 953.832214,169.081940 
	C950.755920,169.361786 950.657654,166.864731 950.659119,164.580444 
	C950.666809,152.428589 950.657349,140.276733 950.655945,128.124878 
	C950.654541,115.307159 950.797241,102.486961 950.574219,89.673126 
	C950.501526,85.497307 952.097473,84.183434 956.045532,84.034637 
	C966.725220,83.632126 966.716980,83.513039 967.144287,94.020958 
	C967.177673,94.840500 967.314087,95.655853 967.402222,96.469650 
	C969.244568,96.934204 969.341797,95.350739 969.881653,94.527771 
	C975.452026,86.036003 988.947754,80.466492 998.367371,84.089912 
	C1003.936707,86.232269 1000.278381,92.306549 1000.975891,96.555916 
	C1001.439941,99.383148 999.774414,100.874924 996.875244,100.877785 
	C993.213318,100.881409 989.549805,100.838196 985.889832,100.929649 
	C973.615723,101.236351 967.621887,107.149933 967.403870,119.538414 
	C967.216492,130.188797 967.366272,140.845123 967.367310,151.998505 
z"/>
<path fill="#000000" opacity="1.000000" stroke="none" 
	d="
M679.967651,101.570030 
	C670.330688,104.879776 668.553284,112.602310 668.412170,120.905586 
	C668.168884,135.210770 668.209534,149.524719 668.411865,163.831039 
	C668.471130,168.026550 666.974365,169.313797 662.921387,169.236145 
	C649.976196,168.988083 651.726257,170.401794 651.679443,158.072281 
	C651.594727,135.776779 651.640503,113.480789 651.631897,91.185005 
	C651.631165,89.216393 651.631775,87.247780 651.631775,84.932793 
	C656.515259,84.210060 660.957458,84.490776 665.385132,84.661476 
	C667.930542,84.759613 668.004639,86.725113 668.152710,88.608749 
	C668.367065,91.334335 667.731201,94.154091 668.654846,96.910202 
	C670.764771,96.330589 670.912659,94.619644 671.667542,93.427582 
	C676.302246,86.109688 692.126892,80.836205 699.863342,84.035416 
	C701.090149,84.542725 701.835388,85.416939 701.870178,86.632408 
	C701.979248,90.449615 702.138123,94.282883 701.901794,98.086571 
	C701.732910,100.803429 699.253357,100.714600 697.305725,100.811127 
	C691.661804,101.090858 685.986694,100.561081 679.967651,101.570030 
z"/>
</svg>