<svg version="1.1" id="Layer_1" xmlns="http://www.w3.org/2000/svg" xmlns:xlink="http://www.w3.org/1999/xlink" x="0px" y="0px"
	 width="100%" viewBox="0 0 397 127" enable-background="new 0 0 397 127" xml:space="preserve">

<!-- NLR text elements (now black) -->
<path fill="#000000" opacity="1.000000" stroke="none" 
	d="
M320.016724,107.924469 
	C314.977905,107.971603 309.939056,108.018738 304.351624,107.785141 
	C303.624451,107.262352 303.390076,107.101730 303.099884,107.022545 
	C303.044647,78.982567 302.989441,50.942596 303.214722,22.350912 
	C303.746552,21.630215 303.907227,21.398415 303.977295,21.103804 
	C317.268860,21.372061 330.748260,20.330475 343.809631,22.203730 
	C365.493317,25.313591 374.782837,50.463039 361.025116,66.859955 
	C358.426849,69.956688 354.730804,72.132378 351.032562,75.147873 
	C356.597229,85.488487 362.440918,96.347656 368.727295,108.029411 
	C362.142059,108.029411 356.392334,108.204697 350.670868,107.880829 
	C349.532776,107.816414 348.165192,106.018913 347.479187,104.717163 
	C343.683197,97.514061 339.725311,90.363129 336.517792,82.895851 
	C334.682190,78.622437 332.241638,77.072815 327.835724,77.685898 
	C325.757812,77.975037 323.606354,77.735481 321.056427,77.735481 
	C321.056427,87.514824 321.056427,96.803673 320.774353,106.641052 
	C320.233002,107.369331 320.074493,107.614304 320.016724,107.924469 
M346.969666,56.259686 
	C350.221222,47.279743 347.506500,38.998516 339.944794,37.402180 
	C333.907806,36.127728 327.535919,36.439560 321.441345,36.055389 
	C321.441345,45.806118 321.441345,54.564896 321.441345,63.706013 
	C324.613281,63.706013 327.465668,64.060333 330.195862,63.633358 
	C336.154327,62.701515 342.596436,62.692616 346.969666,56.259686 
z"/>

<path fill="#000000" opacity="1.000000" stroke="none" 
	d="
M163.025208,107.863358 
	C157.570908,107.863358 152.116623,107.863358 146.404510,107.863358 
	C146.404510,78.530518 146.404510,49.459202 146.404510,19.070627 
	C164.461014,36.389084 181.849518,53.066849 199.988953,70.464851 
	C199.988953,53.537666 199.988953,37.664257 199.988953,22.154238 
	C206.406372,21.842060 212.376099,21.551659 218.586838,21.249535 
	C218.586838,50.391788 218.586838,79.476654 218.586838,109.593948 
	C216.834961,108.061310 215.524979,107.003426 214.313965,105.842323 
	C200.363876,92.467461 186.459473,79.044724 172.459641,65.722229 
	C170.116562,63.492508 167.376862,61.679592 164.296722,59.937088 
	C163.904465,60.479477 164.035919,60.758865 164.167389,61.038254 
	C164.257599,76.038795 164.347794,91.039345 164.081192,106.587143 
	C163.491318,107.377388 163.258270,107.620369 163.025208,107.863358 
z"/>

<path fill="#000000" opacity="1.000000" stroke="none" 
	d="
M287.022949,107.896561 
	C271.982788,107.952698 256.942657,108.008842 241.355530,107.824799 
	C240.546967,107.687332 240.285400,107.790054 240.023819,107.892776 
	C239.570312,107.949799 239.116821,108.006813 238.337463,107.756554 
	C238.011627,107.449280 238.006882,106.984741 238.005157,106.517044 
	C238.004852,78.039215 238.006271,50.029087 238.011032,21.786140 
	C238.014374,21.553320 237.989273,21.088312 237.989273,21.088312 
	C243.022995,21.035868 248.056717,20.983423 253.634766,21.214695 
	C254.359589,21.766956 254.609253,21.928936 254.928055,21.984348 
	C254.980667,33.636730 255.053787,45.289066 255.080109,56.941505 
	C255.106415,68.588615 255.085876,80.235825 255.085876,92.676483 
	C265.557617,92.676483 275.811951,92.676483 286.600525,92.965973 
	C287.418945,93.188538 287.703156,93.121628 287.987335,93.054703 
	C288.228638,97.855148 288.469910,102.655602 288.229126,107.490761 
	C287.505707,107.649170 287.264343,107.772865 287.022949,107.896561 
z"/>

<!-- Plant/leaf elements (now black) -->
<path fill="#000000" opacity="1.000000" stroke="none" 
	d="
M85.327835,64.188454 
	C81.483650,64.772514 78.696449,64.978142 78.931648,59.888329 
	C79.866661,39.654652 98.603416,21.142866 118.655754,20.933893 
	C119.618080,20.923862 120.581833,21.051311 121.466911,21.109600 
	C123.697319,42.087784 107.719681,61.176392 85.327835,64.188454 
z"/>

<path fill="#000000" opacity="1.000000" stroke="none" 
	d="
M58.381012,74.581932 
	C68.146210,83.969421 73.380356,95.694885 72.768257,106.447433 
	C53.668297,114.035408 27.346460,88.296539 30.610079,64.862885 
	C41.030605,64.379349 50.153740,67.611252 58.381012,74.581932 
z"/>

<path fill="#000000" opacity="1.000000" stroke="none" 
	d="
M100.871468,103.000687 
	C94.653893,104.786240 88.804840,106.547508 82.875786,107.976929 
	C80.299164,108.598114 79.006630,107.308807 78.928429,104.397934 
	C78.362862,83.346443 100.431175,62.806973 121.320404,65.062904 
	C123.630943,78.093147 115.021385,94.264832 100.871468,103.000687 
z"/>

<!-- Additional text elements (now black) -->
<path fill="#000000" opacity="1.000000" stroke="none" 
	d="
M60.602386,26.032330 
	C69.465164,30.048532 73.636490,36.686970 72.993416,45.991314 
	C72.426247,54.197346 67.984962,59.938168 60.418133,62.963772 
	C53.081959,65.897141 44.676476,63.174149 39.557938,56.632339 
	C34.465530,50.123924 34.133629,40.257652 38.772457,33.282784 
	C43.435406,26.271662 51.493084,23.508741 60.602386,26.032330 
z"/>

<!-- R letter part (now black) -->
<path fill="#000000" opacity="1.000000" stroke="none" 
	d="
M346.792542,56.591324 
	C342.596436,62.692616 336.154327,62.701515 330.195862,63.633358 
	C327.465668,64.060333 324.613281,63.706013 321.441345,63.706013 
	C321.441345,54.564896 321.441345,45.806118 321.441345,36.055389 
	C327.535919,36.439560 333.907806,36.127728 339.944794,37.402180 
	C347.506500,38.998516 350.221222,47.279743 346.792542,56.591324 
z"/>

</svg>